<?xml version="1.0" encoding="UTF-8"?>
<svg id="Layer_2" data-name="Layer 2" xmlns="http://www.w3.org/2000/svg" viewBox="0 0 567.8 209.46">
  <defs>
    <style>
      .cls-1 {
        stroke-width: 0px;
      }

      .cls-1, .cls-2 {
        fill: #000;
      }

      .cls-2 {
        font-family: Waxe, Waxe;
        font-size: 173.47px;
      }
    </style>
  </defs>
  <g id="Layer_1-2" data-name="Layer 1">
    <text class="cls-2" transform="translate(159.11 154.64)"><tspan x="0" y="0">ghikk</tspan></text>
    <path class="cls-1" d="M11.45,18.3v116.57l65.05-65.74c1.21-1.04,2.6-1.74,4.16-1.74,1.39,0,2.95.69,3.99,1.74,2.25,2.25,2.25,5.9,0,8.15l-33.65,34.17,33.65,33.3c1.21,1.21,1.73,2.6,1.73,4.16s-.52,2.95-1.73,3.99c-1.04,1.21-2.6,1.73-3.99,1.73-1.56,0-2.95-.52-4.16-1.73l-33.65-33.3-32.96,33.3c-1.21,1.21-2.6,1.73-4.16,1.73-1.39,0-2.95-.52-3.99-1.73-1.39-1.04-1.73-2.6-1.73-4.16V18.3c0-3.12,2.43-5.72,5.72-5.72,3.12,0,5.72,2.6,5.72,5.72Z"/>
    <path class="cls-1" d="M128.96,148.92V32.35L63.91,98.1c-1.21,1.04-2.6,1.74-4.16,1.74-1.39,0-2.95-.69-3.99-1.74-2.25-2.25-2.25-5.9,0-8.15l33.65-34.17L55.76,22.47c-1.21-1.21-1.73-2.6-1.73-4.16s.52-2.95,1.73-3.99c1.04-1.21,2.6-1.73,3.99-1.73,1.56,0,2.95.52,4.16,1.73l33.65,33.3,32.96-33.3c1.21-1.21,2.6-1.73,4.16-1.73,1.39,0,2.95.52,3.99,1.73,1.39,1.04,1.73,2.6,1.73,4.16v130.44c0,3.12-2.43,5.72-5.72,5.72-3.12,0-5.72-2.6-5.72-5.72Z"/>
  </g>
</svg>